<?xml version="1.0" encoding="UTF-8" standalone="no"?>
<!-- Created with Inkscape (http://www.inkscape.org/) -->

<svg
   xmlns:dc="http://purl.org/dc/elements/1.1/"
   xmlns:cc="http://creativecommons.org/ns#"
   xmlns:rdf="http://www.w3.org/1999/02/22-rdf-syntax-ns#"
   xmlns:svg="http://www.w3.org/2000/svg"
   xmlns="http://www.w3.org/2000/svg"
   xmlns:sodipodi="http://sodipodi.sourceforge.net/DTD/sodipodi-0.dtd"
   xmlns:inkscape="http://www.inkscape.org/namespaces/inkscape"
   width="146.39717mm"
   height="151.46671mm"
   viewBox="0 0 518.73013 536.69296"
   id="svg2"
   version="1.1"
   inkscape:version="0.91 r13725"
   sodipodi:docname="inkling-v3.svg">
  <defs
     id="defs4" />
  <sodipodi:namedview
     id="base"
     pagecolor="#ffffff"
     bordercolor="#666666"
     borderopacity="1.0"
     inkscape:pageopacity="0.0"
     inkscape:pageshadow="2"
     inkscape:zoom="1.2360696"
     inkscape:cx="440.73313"
     inkscape:cy="184.44792"
     inkscape:document-units="px"
     inkscape:current-layer="g4842"
     showgrid="false"
     inkscape:window-width="1918"
     inkscape:window-height="1040"
     inkscape:window-x="0"
     inkscape:window-y="19"
     inkscape:window-maximized="1"
     fit-margin-top="0.1"
     fit-margin-left="0.1"
     fit-margin-right="0.1"
     fit-margin-bottom="0.1" />
  <metadata
     id="metadata7">
    <rdf:RDF>
      <cc:Work
         rdf:about="">
        <dc:format>image/svg+xml</dc:format>
        <dc:type
           rdf:resource="http://purl.org/dc/dcmitype/StillImage" />
        <dc:title></dc:title>
      </cc:Work>
    </rdf:RDF>
  </metadata>
  <g
     transform="translate(-5.9345311,-311.95563)"
     style="display:inline"
     inkscape:label="ink copy 1"
     id="g4842"
     inkscape:groupmode="layer">
    <path
       style="fill:#1a1a39;fill-opacity:1"
       d="m 346.42754,312.3099 a 40.139374,40.139374 0 0 0 -40.13868,40.13867 40.139374,40.139374 0 0 0 16.96094,32.73828 l -33.27734,84.66406 a 112.30916,112.30916 0 0 0 -30.31055,-4.28125 112.30916,112.30916 0 0 0 -49.50977,11.65429 L 189.23808,439.0345 a 25.625574,25.625574 0 0 0 6.90235,-17.44726 25.625574,25.625574 0 0 0 -25.625,-25.625 25.625574,25.625574 0 0 0 -25.62696,25.625 25.625574,25.625574 0 0 0 25.62696,25.625 25.625574,25.625574 0 0 0 6.12304,-0.76953 l 20.8125,38.00585 a 112.30916,112.30916 0 0 0 -37.45703,41.75196 L 97.400188,502.05403 a 45.78363,45.78363 0 0 0 0.45508,-6.07617 45.78363,45.78363 0 0 0 -45.7832,-45.7832 45.78363,45.78363 0 0 0 -45.7832062,45.7832 45.78363,45.78363 0 0 0 45.7832062,45.7832 45.78363,45.78363 0 0 0 33.67773,-14.84961 L 150.533,551.90169 a 112.30916,112.30916 0 0 0 -3.17968,25.97656 112.30916,112.30916 0 0 0 32.60547,79.00391 L 133.283,714.57747 a 27.238218,27.238218 0 0 0 -11.4746,-2.56836 27.238218,27.238218 0 0 0 -27.236332,27.23828 27.238218,27.238218 0 0 0 27.236332,27.23828 27.238218,27.238218 0 0 0 27.23828,-27.23828 27.238218,27.238218 0 0 0 -2.62305,-11.5957 l 47.58789,-58.82227 a 112.30916,112.30916 0 0 0 65.65039,21.35938 112.30916,112.30916 0 0 0 21.19141,-2.10157 l 21.85351,80.14454 a 43.364662,43.364662 0 0 0 -20.29492,36.69726 43.364662,43.364662 0 0 0 43.36523,43.36524 43.364662,43.364662 0 0 0 43.36524,-43.36524 43.364662,43.364662 0 0 0 -41.20313,-43.25586 l -22.23437,-81.54101 a 112.30916,112.30916 0 0 0 42.34961,-33.1836 l 95.64844,71.46485 a 40.139374,40.139374 0 0 0 -3.67188,16.66992 40.139374,40.139374 0 0 0 40.14063,40.14062 40.139374,40.139374 0 0 0 40.13867,-40.14062 40.139374,40.139374 0 0 0 -40.13867,-40.13867 40.139374,40.139374 0 0 0 -21.54102,6.27929 l -98.44922,-73.55664 a 112.30916,112.30916 0 0 0 11.78906,-49.78906 112.30916,112.30916 0 0 0 -3.57617,-27.74219 l 52.46289,-23.90429 a 59.491104,59.491104 0 0 0 43.96094,19.50586 59.491104,59.491104 0 0 0 59.49219,-59.49024 59.491104,59.491104 0 0 0 -59.49219,-59.49023 59.491104,59.491104 0 0 0 -59.49023,59.49023 59.491104,59.491104 0 0 0 0.13867,3.93555 l -53.26367,24.26953 a 112.30916,112.30916 0 0 0 -41.09961,-36.29492 l 33.66797,-85.65234 a 40.139374,40.139374 0 0 0 1.65625,0.084 40.139374,40.139374 0 0 0 40.13867,-40.14063 40.139374,40.139374 0 0 0 -40.13867,-40.13867 z"
       id="circle4844"
       inkscape:connector-curvature="0" />
  </g>
  <g
     inkscape:groupmode="layer"
     id="layer3"
     inkscape:label="eyes"
     style="display:inline"
     transform="translate(-5.9345311,-311.95563)">
    <g
       id="g4339"
       transform="matrix(1,0,0,1.322034,-63.480502,-98.477686)">
      <path
         style="display:inline;fill:#ececec;fill-opacity:1"
         d="m 370.17421,493.6546 a 10.947102,23.515997 0 0 1 -10.9471,23.516 10.947102,23.515997 0 0 1 -10.9471,-23.516 10.947102,23.515997 0 0 1 10.9471,-23.51599 10.947102,23.515997 0 0 1 10.9471,23.51599 z"
         id="path4248-9"
         inkscape:connector-curvature="0" />
      <path
         style="display:inline;fill:#ececec;fill-opacity:1"
         d="m 298.00444,494.46548 a 10.947102,23.515997 0 0 1 -10.9471,23.516 10.947102,23.515997 0 0 1 -10.9471,-23.516 10.947102,23.515997 0 0 1 10.9471,-23.51599 10.947102,23.515997 0 0 1 10.9471,23.51599 z"
         id="path4248-2"
         inkscape:connector-curvature="0" />
    </g>
  </g>
</svg>
