<?xml version="1.0" encoding="UTF-8" standalone="no"?>
<!-- Created with Inkscape (http://www.inkscape.org/) -->

<svg
   xmlns:dc="http://purl.org/dc/elements/1.1/"
   xmlns:cc="http://creativecommons.org/ns#"
   xmlns:rdf="http://www.w3.org/1999/02/22-rdf-syntax-ns#"
   xmlns:svg="http://www.w3.org/2000/svg"
   xmlns="http://www.w3.org/2000/svg"
   xmlns:sodipodi="http://sodipodi.sourceforge.net/DTD/sodipodi-0.dtd"
   xmlns:inkscape="http://www.inkscape.org/namespaces/inkscape"
   width="167.24841mm"
   height="198.30762mm"
   viewBox="0 0 592.61249 702.66478"
   id="svg2"
   version="1.1"
   inkscape:version="0.91 r13725"
   sodipodi:docname="inkstone3.svg"
   inkscape:export-filename="/home/ben/inkstone3.svg.png"
   inkscape:export-xdpi="90"
   inkscape:export-ydpi="90">
  <defs
     id="defs4" />
  <sodipodi:namedview
     id="base"
     pagecolor="#ffffff"
     bordercolor="#666666"
     borderopacity="1.0"
     inkscape:pageopacity="0.0"
     inkscape:pageshadow="2"
     inkscape:zoom="0.94418516"
     inkscape:cx="128.4237"
     inkscape:cy="401.20597"
     inkscape:document-units="px"
     inkscape:current-layer="layer2"
     showgrid="false"
     inkscape:window-width="1918"
     inkscape:window-height="1040"
     inkscape:window-x="0"
     inkscape:window-y="19"
     inkscape:window-maximized="1"
     fit-margin-top="0.1"
     fit-margin-left="0.1"
     fit-margin-right="0.1"
     fit-margin-bottom="0.1" />
  <metadata
     id="metadata7">
    <rdf:RDF>
      <cc:Work
         rdf:about="">
        <dc:format>image/svg+xml</dc:format>
        <dc:type
           rdf:resource="http://purl.org/dc/dcmitype/StillImage" />
        <dc:title />
      </cc:Work>
    </rdf:RDF>
  </metadata>
  <g
     inkscape:label="Layer 1"
     inkscape:groupmode="layer"
     id="layer1"
     transform="translate(-127.64485,-288.67724)"
     sodipodi:insensitive="true">
    <path
       style="fill:#1a1a39;fill-opacity:1;stroke:#5e6c7c;stroke-width:0;stroke-miterlimit:4;stroke-dasharray:none;stroke-opacity:1"
       d="m 300.57024,323.61573 c 0,0 -122.12406,110.43726 -145.14609,145.10429 -24.55583,36.7047 -23.71041,49.76689 -25.86112,70.51936 -2.45228,26.76994 -3.06091,47.90554 6.09072,72.12551 3.9459,10.07258 11.54499,21.99185 11.54499,21.99185 l 99.54755,163.67124 3.03215,6.17934 c 0.92778,1.89075 2.094,4.5881 2.47363,6.70856 0.71646,4.00189 0.30516,7.12077 1.96718,7.12077 1.25309,0 1.53826,-3.78289 2.12053,-7.67552 0.31014,-2.07329 0.15541,-4.11238 0.1434,-5.69292 -0.0549,-7.24319 4.46659,-6.8263 17.4768,-6.64023 3.71214,0.0531 -3.21851,28.24438 -2.75546,40.11251 0.27023,6.92605 7.3341,11.82974 10.74318,11.75833 3.69504,-0.0775 9.35355,-6.44825 8.96638,-14.18353 -0.58211,-11.63037 -8.99882,-37.68731 -3.47109,-37.68731 l 7.30865,0 c 10.95298,-0.73926 15.99329,3.98959 16.70255,14.16473 0.32024,4.59403 -0.35998,22.57872 0.52104,40.43059 0.48208,9.76844 -6.17336,19.70725 -6.40556,27.59385 -0.28496,9.67805 4.16433,15.61403 13.02308,15.76262 6.65263,0.11154 8.40301,-6.07022 8.08256,-15.39714 -0.27582,-8.02763 -3.99243,-18.24488 -3.42749,-28.21076 1.02294,-18.04476 2.47139,-35.7269 2.86102,-40.19831 0.9483,-10.88248 6.71888,-14.14558 18.54277,-14.14558 l 17.00296,0 c 12.50661,3.58714 8.33403,36.15216 14.78518,39.18071 6.45113,3.02853 1.86406,-30.243 16.26369,-39.18071 l 24.39553,0 c 13.46407,0.15829 30.76245,17.71569 31.50223,41.33241 0.45442,14.50703 2.87795,49.62395 -5.28254,77.33627 -12.91998,43.87514 3.82237,76.10689 21.41767,75.27528 26.96905,-1.27455 38.62889,-30.11017 20.0626,-72.11718 -7.29256,-16.49971 -8.2707,-66.10693 -8.0842,-80.74988 0.29818,-23.41274 15.33532,-40.81704 27.24717,-41.0769 l 18.85109,0 c 23.84482,-1.15379 17.18498,69.58472 10.0467,104.94396 -2.52024,12.48387 4.71253,31.43431 16.02531,31.53901 11.81871,0.10927 18.61006,-24.10576 13.80719,-36.77141 -14.74937,-38.89565 -7.72024,-100.08261 12.23854,-99.71156 l 29.93999,0 c 8.78665,-0.0164 0.54365,47.01534 13.86109,48.05182 11.13824,0.86689 -5.20927,-48.08633 4.8052,-48.05182 l 7.20778,0 c 1.62061,0 7.13305,2.94791 8.55229,7.2415 0.70059,2.11947 0.88537,10.08735 1.22318,15.95934 0.068,1.18241 -0.41315,3.32529 -0.32726,4.27285 0.18373,2.02679 0.97622,2.32258 1.32011,2.34363 0.39259,0.0241 1.15362,0.048 1.32161,-1.93997 0.0816,-0.96643 -0.37599,-3.40632 -0.3179,-4.6369 0.29096,-6.16219 0.40747,-14.76956 1.5616,-17.14148 1.65579,-3.4029 3.27608,-4.63882 4.69517,-6.09897 l 62.23869,-62.22342 c 0,0 8.26621,-11.2833 8.84857,-22.42766 0.58236,-11.14435 -5.06516,-25.9614 -5.06516,-25.9614 0,0 -185.18786,-338.97346 -199.16576,-353.6036 -12.61304,-14.68081 -23.18125,-29.26978 -70.4001,-40.9504 -36.64564,-6.08296 -70.47587,-1.34158 -94.64467,4.64957 -25.33302,9.60551 -50.01492,27.10466 -50.01492,27.10466 z"
       id="rect4136"
       inkscape:connector-curvature="0"
       sodipodi:nodetypes="ccccccsssssssssscssssssssczccsssssccsssccscsssssssscczccccc" />
    <path
       style="fill:#1a1a39;fill-opacity:1;stroke:#5e6c7c;stroke-width:0;stroke-miterlimit:4;stroke-dasharray:none;stroke-opacity:1"
       d="m 387.50235,924.03496 c 3.69913,18.41305 -5.46657,27.35255 -13.12185,27.35255 -7.65527,0 -14.01047,-8.56094 -11.45851,-27.16773 1.66333,-12.12762 8.27192,-21.11434 11.08889,-53.04183 1.43898,32.57357 10.34962,37.21792 13.49147,52.85701 z"
       id="path5334"
       inkscape:connector-curvature="0"
       sodipodi:nodetypes="ssscs" />
  </g>
  <g
     inkscape:groupmode="layer"
     id="layer2"
     inkscape:label="eyes"
     style="display:inline"
     transform="translate(-127.64485,-288.67724)">
    <g
       style="display:inline"
       id="g4339"
       transform="matrix(1.4656059,0,0,1.9375808,-76.222181,-429.24508)">
      <ellipse
         ry="23.515997"
         rx="10.947102"
         cy="493.6546"
         cx="359.22711"
         id="path4248-9"
         style="display:inline;fill:#ececec;fill-opacity:1" />
      <ellipse
         ry="23.515997"
         rx="10.947102"
         cy="494.46548"
         cx="287.05734"
         id="path4248-2"
         style="display:inline;fill:#ececec;fill-opacity:1" />
    </g>
  </g>
</svg>
