<?xml version="1.0" ?><svg enable-background="new 0 0 64 64" height="64px" version="1.1" viewBox="0 0 64 64" width="64px" xml:space="preserve" xmlns="http://www.w3.org/2000/svg" xmlns:xlink="http://www.w3.org/1999/xlink"><g id="Layer_1"><g><circle cx="32" cy="32" fill="#76C2AF" r="32"/></g><g opacity="0.2"><g><path d="M46,45c0,2.209-1.791,4-4,4H22c-2.209,0-4-1.791-4-4V25c0-2.209,1.791-4,4-4h20c2.209,0,4,1.791,4,4V45z" fill="#231F20"/></g></g><g><g><path d="M22,45c-1.103,0-2-0.897-2-2V23c0-1.103,0.897-2,2-2h20c1.103,0,2,0.897,2,2v20c0,1.103-0.897,2-2,2H22z" fill="#FFFFFF"/></g><g><path d="M42,23v20H22V23H42 M42,19H22c-2.209,0-4,1.791-4,4v20c0,2.209,1.791,4,4,4h20c2.209,0,4-1.791,4-4V23     C46,20.791,44.209,19,42,19L42,19z" fill="#4F5D73"/></g></g><g opacity="0.2"><g><path d="M32.452,41c-0.618,0-1.207-0.287-1.588-0.785l-6.119-8c-0.671-0.877-0.503-2.132,0.374-2.803     c0.877-0.67,2.132-0.504,2.803,0.374l4.187,5.474c2.31-4.155,7.326-11.783,15.306-16.939c0.927-0.6,2.167-0.333,2.765,0.594     c0.6,0.928,0.333,2.166-0.594,2.765c-10.208,6.596-15.249,18.003-15.299,18.117c-0.283,0.65-0.888,1.103-1.592,1.188     C32.613,40.995,32.532,41,32.452,41z" fill="#231F20"/></g></g><g><path d="M32.452,39c-0.618,0-1.207-0.287-1.589-0.785l-6.119-8c-0.671-0.877-0.504-2.133,0.374-2.804    c0.877-0.67,2.134-0.503,2.804,0.374l4.188,5.475c2.309-4.155,7.325-11.783,15.305-16.939c0.929-0.599,2.166-0.333,2.766,0.594    c0.6,0.928,0.334,2.166-0.594,2.766c-10.208,6.596-15.25,18.003-15.3,18.117c-0.282,0.65-0.888,1.103-1.592,1.188    C32.613,38.995,32.532,39,32.452,39z" fill="#C75C5C"/></g></g><g id="Layer_2"/></svg>