<?xml version="1.0" ?><svg enable-background="new 0 0 64 64" height="64px" version="1.1" viewBox="0 0 64 64" width="64px" xml:space="preserve" xmlns="http://www.w3.org/2000/svg" xmlns:xlink="http://www.w3.org/1999/xlink"><g id="Layer_1"><g><circle cx="31.833" cy="32" fill="#C75C5C" r="32"/></g><g><g><rect fill="#4F5D73" height="4" width="4" x="16" y="30"/></g><g><rect fill="#4F5D73" height="4" width="4" x="16" y="37"/></g><g><rect fill="#4F5D73" height="4" width="4" x="16" y="44"/></g><g><rect fill="#4F5D73" height="4" width="4" x="16" y="23"/></g><g><rect fill="#4F5D73" height="4" width="4" x="16" y="16"/></g><g><rect fill="#4F5D73" height="4" width="4" x="44" y="30"/></g><g><rect fill="#4F5D73" height="4" width="4" x="44" y="37"/></g><g><rect fill="#4F5D73" height="4" width="4" x="44" y="44"/></g><g><rect fill="#4F5D73" height="4" width="4" x="44" y="23"/></g><g><rect fill="#4F5D73" height="4" width="4" x="44" y="16"/></g><g><rect fill="#4F5D73" height="14" width="16" x="24" y="16"/></g><g><rect fill="#4F5D73" height="14" width="16" x="24" y="34"/></g></g><g opacity="0.2"><path d="M48,14H16c-2.209,0-4,1.791-4,4v32c0,2.209,1.791,4,4,4h32c2.209,0,4-1.791,4-4V18    C52,15.791,50.209,14,48,14z M20,50h-4v-4h4V50z M20,43h-4v-4h4V43z M20,36h-4v-4h4V36z M20,29h-4v-4h4V29z M20,22h-4v-4h4V22z     M40,50H24V36h16V50z M40,32H24V18h16V32z M48,50h-4v-4h4V50z M48,43h-4v-4h4V43z M48,36h-4v-4h4V36z M48,29h-4v-4h4V29z M48,22    h-4v-4h4V22z" fill="#231F20"/></g><g><path d="M48,12H16c-2.209,0-4,1.791-4,4v32c0,2.209,1.791,4,4,4h32c2.209,0,4-1.791,4-4V16    C52,13.791,50.209,12,48,12z M20,48h-4v-4h4V48z M20,41h-4v-4h4V41z M20,34h-4v-4h4V34z M20,27h-4v-4h4V27z M20,20h-4v-4h4V20z     M40,48H24V34h16V48z M40,30H24V16h16V30z M48,48h-4v-4h4V48z M48,41h-4v-4h4V41z M48,34h-4v-4h4V34z M48,27h-4v-4h4V27z M48,20    h-4v-4h4V20z" fill="#E0E0D1"/></g></g><g id="Layer_2"/></svg>