<?xml version="1.0" ?><svg enable-background="new 0 0 64 64" height="64px" id="Layer_1" version="1.1" viewBox="0 0 64 64" width="64px" xml:space="preserve" xmlns="http://www.w3.org/2000/svg" xmlns:xlink="http://www.w3.org/1999/xlink"><circle cx="32" cy="32" fill="#E0E0D1" r="32"/><g><g><circle cx="32" cy="32" fill="#76C2AF" r="15.4"/></g><circle cx="32" cy="32" fill="#4F5D73" r="8.5"/><g opacity="0.2"><path d="M43.086,17.872c-6.148-1.315-13.977-0.786-20.297,0.886C22.284,20.281,22,21.906,22,23.6    C22,32.105,28.895,39,37.4,39c5.463,0,10.249-2.852,12.983-7.14C49.387,26.028,47.761,18.872,43.086,17.872z" fill="#FFFFFF"/></g><circle cx="36" cy="26" fill="#FFFFFF" r="2"/><path d="M32,20.544c6.661,0,12.08,5.419,12.08,12.081S38.661,44.705,32,44.705   s-12.081-5.419-12.081-12.08S25.339,20.544,32,20.544 M32,17.25c-8.492,0-15.375,6.884-15.375,15.375   C16.625,41.116,23.508,48,32,48s15.375-6.884,15.375-15.375C47.375,24.133,40.491,17.25,32,17.25L32,17.25z" fill="#231F20" opacity="0.2"/><g><path d="M32,19c7.168,0,13,5.832,13,13s-5.832,13-13,13s-13-5.832-13-13S24.832,19,32,19 M32,16    c-8.837,0-16,7.163-16,16s7.163,16,16,16c8.837,0,16-7.163,16-16S40.837,16,32,16L32,16z" fill="#4F5D73"/></g><path d="M32,17.409c8.287,0,15.029,6.742,15.029,15.029c0,8.287-6.742,15.029-15.029,15.029   s-15.029-6.742-15.029-15.029C16.971,24.151,23.713,17.409,32,17.409 M32,14.188c-10.079,0-18.25,8.171-18.25,18.25   c0,10.079,8.171,18.25,18.25,18.25s18.25-8.171,18.25-18.25C50.25,22.359,42.079,14.188,32,14.188L32,14.188z" fill="#231F20" opacity="0.2"/><g><path d="M32,16c8.822,0,16,7.178,16,16s-7.178,16-16,16s-16-7.178-16-16S23.178,16,32,16 M32,13    c-10.493,0-19,8.507-19,19s8.507,19,19,19s19-8.507,19-19S42.493,13,32,13L32,13z" fill="#4F5D73"/></g><path d="M32,14.54c9.886,0,17.93,8.043,17.93,17.93c0,9.887-8.043,17.93-17.93,17.93   s-17.93-8.043-17.93-17.93C14.07,22.583,22.113,14.54,32,14.54 M32,11.375c-11.65,0-21.094,9.444-21.094,21.094   c0,11.65,9.444,21.094,21.094,21.094s21.094-9.444,21.094-21.094C53.094,20.819,43.65,11.375,32,11.375L32,11.375z" fill="#231F20" opacity="0.2"/><g opacity="0.2"><circle cx="32" cy="34" fill="#231F20" r="22"/></g><g><path d="M32,13c10.477,0,19,8.523,19,19s-8.523,19-19,19s-19-8.523-19-19S21.523,13,32,13 M32,10    c-12.15,0-22,9.85-22,22s9.85,22,22,22s22-9.85,22-22S44.15,10,32,10L32,10z" fill="#4F5D73"/></g></g></svg>