<?xml version="1.0" ?><svg enable-background="new 0 0 64 64" height="64px" id="Layer_1" version="1.1" viewBox="0 0 64 64" width="64px" xml:space="preserve" xmlns="http://www.w3.org/2000/svg" xmlns:xlink="http://www.w3.org/1999/xlink"><circle cx="32" cy="32" fill="#C75C5C" r="32"/><path d="M48,52c0,1.105-0.895,2-2,2H18c-1.105,0-2-0.895-2-2V16c0-1.105,0.895-2,2-2h23  c1.105,0,7,5.895,7,7V52z" fill="#231F20" opacity="0.2"/><path d="M48,50c0,1.105-0.895,2-2,2H18c-1.105,0-2-0.895-2-2V14c0-1.105,0.895-2,2-2h23c1.105,0,7,5.895,7,7V50z" fill="#4F5D73"/><path d="M44,46c0,1.105-0.895,2-2,2H22c-1.105,0-2-0.895-2-2V26c0-1.105,0.895-2,2-2h20c1.105,0,2,0.895,2,2V46z" fill="#E0E0D1"/><rect fill="#F5CF87" height="6" width="4" x="20" y="12"/><rect fill="#F5CF87" height="6" width="4" x="26" y="12"/><rect fill="#F5CF87" height="6" width="4" x="32" y="12"/></svg>