<?xml version="1.0" ?><svg enable-background="new 0 0 64 64" height="64px" version="1.1" viewBox="0 0 64 64" width="64px" xml:space="preserve" xmlns="http://www.w3.org/2000/svg" xmlns:xlink="http://www.w3.org/1999/xlink"><g id="Layer_1"><g><circle cx="32" cy="32" fill="#77B3D4" r="32"/></g><g opacity="0.2"><path d="M37,14H27c-1.657,0-3,1.343-3,3v5v1v23l5.333,8L32,58l2.667-4L40,46V23v-1v-5C40,15.343,38.657,14,37,14z" fill="#231F20"/></g><g><path d="M40,21c0,1.657-1.343,3-3,3H27c-1.657,0-3-1.343-3-3v-6c0-1.657,1.343-3,3-3h10c1.657,0,3,1.343,3,3V21z" fill="#C75C5C"/></g><g><rect fill="#E0995E" height="24" width="4" x="24" y="20"/></g><g><rect fill="#F5CF87" height="26" width="8" x="28" y="20"/></g><g><rect fill="#E0995E" height="24" width="4" x="36" y="20"/></g><g><g><polygon fill="#4F5D73" points="32,56 34.667,52 29.333,52    "/></g><g><polygon fill="#FFFFFF" points="24,44 29.333,52 34.667,52 40,44 38,44 36,42 32,46 28,42 26,44    "/></g></g></g><g id="Layer_2"/></svg>