<?xml version="1.0" ?><svg enable-background="new 0 0 64 64" height="64px" version="1.1" viewBox="0 0 64 64" width="64px" xml:space="preserve" xmlns="http://www.w3.org/2000/svg" xmlns:xlink="http://www.w3.org/1999/xlink"><g id="Layer_1"><g><circle cx="32" cy="31.634" fill="#E0E0D1" r="32"/></g><g><g opacity="0.2"><path d="M24.349,41h-2.304l2.229-3.861c0.827-1.433,0.338-3.265-1.093-4.094l-0.011-0.006l-6.04-3.485     l-0.035-0.02c-1.432-0.814-3.254-0.323-4.079,1.106l0,0.001L9.59,36.573c-0.825,1.429-0.825,3.767,0,5.196l5.561,9.632     c0.418,0.723,1.143,1.378,1.972,1.851c0.031,0.018,0.065,0.031,0.097,0.048l0,0C18.003,53.731,18.868,54,19.651,54l6.85,0     l4.001-6.833L26.504,41H24.349z" fill="#231F20"/></g><g opacity="0.2"><path d="M54.409,36.573l-3.425-5.981h-7.918l-3.341,6.546l1.077,1.866h0L41.954,41h-4.458     c-1.655,0-2.996,1.34-2.999,2.994v0.012l0.001,6.973v0.041C34.509,52.667,35.846,54,37.495,54h0.001l6.852,0     c1.65,0,3.675-1.169,4.5-2.598l5.561-9.632c0.418-0.723,0.622-1.679,0.617-2.633C55.021,38.207,54.817,37.279,54.409,36.573z" fill="#231F20"/></g><g opacity="0.2"><path d="M38.317,28.719l0.011-0.006l6.038-3.488l0.035-0.021c1.421-0.833,1.906-2.657,1.081-4.086l0-0.001     l-3.426-5.934c-0.825-1.429-2.85-2.598-4.5-2.598H26.435c-0.835,0-1.765,0.301-2.588,0.782c-0.031,0.018-0.059,0.041-0.09,0.059     l0,0c-0.764,0.464-1.43,1.078-1.821,1.757l-3.467,5.957l3.959,6.857h7.34l2.229-4.24l0,0l0,0v0l2.229,3.861     C35.052,29.051,36.883,29.543,38.317,28.719z" fill="#231F20"/></g></g><g><g><g><path d="M22.046,39l-4.999,8.658c0,0-0.765,1.29-0.693,2.378c0.033,0.494,0.239,0.947,0.769,1.217      C17.931,51.713,18.836,52,19.651,52l6.85,0l4.001-6.833L26.504,39H22.046z" fill="#4F5D73"/></g></g><g><path d="M16.354,50.036c-0.073-1.087,0.693-2.378,0.693-2.378L22.046,39l2.229-3.861     c0.827-1.433,0.338-3.265-1.093-4.094l-0.011-0.006l-6.04-3.485l-0.035-0.02c-1.432-0.814-3.254-0.322-4.079,1.106l0,0.001     L9.59,34.574c-0.825,1.429-0.825,3.767,0,5.196l5.561,9.632c0.418,0.723,1.143,1.378,1.972,1.851     C16.593,50.982,16.387,50.53,16.354,50.036z" fill="#76C2AF"/></g><g opacity="0.2"><path d="M22.046,39l-4.999,8.658c0,0-0.765,1.29-0.693,2.378c0.033,0.494,0.239,0.947,0.769,1.217     c0.031,0.018,0.065,0.031,0.097,0.048L24.349,39H22.046z" fill="#231F20"/></g></g><g><g><g><path d="M41.954,39l9.997,0c0,0,1.5,0.018,2.406-0.589c0.412-0.276,0.7-0.68,0.669-1.274      c-0.005-0.93-0.209-1.858-0.617-2.563l-3.425-5.981h-7.918l-3.341,6.546L41.954,39z" fill="#4F5D73"/></g></g><g><path d="M54.357,38.411C53.451,39.018,51.951,39,51.951,39l-9.997,0l-4.458,0c-1.655,0-2.996,1.34-2.999,2.994     l0,0.012l0.001,6.973l0,0.041C34.509,50.667,35.846,52,37.495,52l0.001,0l6.852,0c1.65,0,3.675-1.169,4.5-2.598l5.561-9.632     c0.418-0.723,0.622-1.679,0.617-2.633C55.057,37.731,54.768,38.135,54.357,38.411z" fill="#76C2AF"/></g><g opacity="0.2"><path d="M41.954,39l9.997,0c0,0,1.5,0.018,2.406-0.589c0.412-0.276,0.7-0.68,0.669-1.274     c0-0.036-0.006-0.072-0.006-0.108l-14.218-0.024L41.954,39z" fill="#231F20"/></g></g><g><g><g><path d="M31.996,21.757l-4.999-8.658c0,0-0.735-1.308-1.713-1.789c-0.445-0.219-0.939-0.266-1.438,0.057      c-0.803,0.469-1.504,1.11-1.912,1.816l-3.467,5.957l3.959,6.857h7.34L31.996,21.757z" fill="#4F5D73"/></g></g><g><path d="M25.284,11.31c0.978,0.481,1.713,1.789,1.713,1.789l4.999,8.658l2.229,3.861     c0.827,1.433,2.658,1.925,4.092,1.101l0.011-0.006l6.038-3.488l0.035-0.02c1.421-0.833,1.906-2.657,1.081-4.086l0-0.001     l-3.426-5.934c-0.825-1.429-2.85-2.598-4.5-2.598l-11.122,0c-0.835,0-1.765,0.301-2.588,0.782     C24.345,11.044,24.84,11.092,25.284,11.31z" fill="#76C2AF"/></g><g opacity="0.2"><path d="M31.996,21.757l-4.999-8.658c0,0-0.735-1.308-1.713-1.789c-0.445-0.219-0.939-0.266-1.438,0.057     c-0.031,0.018-0.059,0.041-0.09,0.059l7.088,12.325L31.996,21.757z" fill="#231F20"/></g></g></g><g id="Layer_2"/></svg>