<?xml version="1.0" ?><svg enable-background="new 0 0 64 64" height="64px" id="Layer_1" version="1.1" viewBox="0 0 64 64" width="64px" xml:space="preserve" xmlns="http://www.w3.org/2000/svg" xmlns:xlink="http://www.w3.org/1999/xlink"><circle cx="32" cy="32" fill="#76C2AF" r="32"/><path d="M49.768,48.383l-5.313-5.313c-0.056-0.056-0.121-0.098-0.18-0.147  C46.601,39.889,48,36.109,48,32c0-9.925-8.075-18-18-18c-9.925,0-18,8.075-18,18c0,9.925,8.075,18,18,18  c4.033,0,7.748-1.35,10.753-3.599c0.055,0.068,0.103,0.14,0.167,0.204l5.313,5.313C46.72,52.406,47.36,52.65,48,52.65  c0.64,0,1.28-0.244,1.768-0.732C50.744,50.942,50.744,49.359,49.768,48.383z M30,46c-7.732,0-14-6.268-14-14s6.268-14,14-14  s14,6.268,14,14S37.732,46,30,46z" fill="#231F20" opacity="0.2"/><g opacity="0.2"><path d="M30,40.5c-1.105,0-2-0.896-2-2v-13c0-1.104,0.895-2,2-2c1.104,0,2,0.896,2,2v13   C32,39.604,31.104,40.5,30,40.5z" fill="#231F20"/></g><g opacity="0.2"><path d="M36.5,34h-13c-1.105,0-2-0.896-2-2c0-1.104,0.895-2,2-2h13c1.104,0,2,0.896,2,2   C38.5,33.104,37.604,34,36.5,34z" fill="#231F20"/></g><g><path d="M48,50.65c-0.64,0-1.28-0.244-1.768-0.732l-5.313-5.313c-0.976-0.976-0.976-2.559,0-3.535   c0.976-0.977,2.56-0.977,3.535,0l5.313,5.313c0.976,0.976,0.976,2.559,0,3.535C49.28,50.406,48.64,50.65,48,50.65z" fill="#4F5D73"/></g><g><path d="M30,16c7.732,0,14,6.268,14,14s-6.268,14-14,14s-14-6.268-14-14S22.268,16,30,16 M30,12   c-9.925,0-18,8.075-18,18s8.075,18,18,18c9.925,0,18-8.075,18-18S39.925,12,30,12L30,12z" fill="#4F5D73"/></g><g><path d="M30,38.5c-1.105,0-2-0.896-2-2v-13c0-1.104,0.895-2,2-2c1.104,0,2,0.896,2,2v13   C32,37.604,31.104,38.5,30,38.5z" fill="#FFFFFF"/></g><g><path d="M36.5,32h-13c-1.105,0-2-0.896-2-2s0.895-2,2-2h13c1.104,0,2,0.896,2,2S37.604,32,36.5,32z" fill="#FFFFFF"/></g></svg>