<?xml version="1.0" ?><svg enable-background="new 0 0 64 64" height="64px" version="1.1" viewBox="0 0 64 64" width="64px" xml:space="preserve" xmlns="http://www.w3.org/2000/svg" xmlns:xlink="http://www.w3.org/1999/xlink"><g id="Layer_1"><g><circle cx="32" cy="32" fill="#77B3D4" r="32"/></g><g><g opacity="0.2"><path d="M12,25v25c0,2.209,1.791,4,4,4h32c2.209,0,4-1.791,4-4V25H12z" fill="#231F20"/></g><g><path d="M12,23v25c0,2.209,1.791,4,4,4h32c2.209,0,4-1.791,4-4V23H12z" fill="#FFFFFF"/></g><g opacity="0.2"><path d="M48,14H16c-2.209,0-4,1.791-4,4v7h40v-7C52,15.791,50.209,14,48,14z" fill="#231F20"/></g><g><path d="M48,12H16c-2.209,0-4,1.791-4,4v7h40v-7C52,13.791,50.209,12,48,12z" fill="#C75C5C"/></g><g><path d="M32,48c-1.104,0-2-0.896-2-2c0-5.515,1.757-9.455,3.491-12H27c-1.104,0-2-0.896-2-2s0.896-2,2-2h11     c0.871,0,1.642,0.563,1.906,1.394s-0.039,1.735-0.75,2.238C38.957,33.778,34,37.493,34,46C34,47.104,33.104,48,32,48z" fill="#4F5D73"/></g><g opacity="0.2"><path d="M20,21c-1.105,0-2-0.895-2-2v-7c0-1.105,0.895-2,2-2l0,0c1.105,0,2,0.895,2,2v7     C22,20.105,21.105,21,20,21L20,21z" fill="#231F20"/></g><g opacity="0.2"><path d="M45,21c-1.105,0-2-0.895-2-2v-7c0-1.105,0.895-2,2-2l0,0c1.105,0,2,0.895,2,2v7     C47,20.105,46.105,21,45,21L45,21z" fill="#231F20"/></g><g><path d="M20,19c-1.105,0-2-0.895-2-2v-7c0-1.105,0.895-2,2-2l0,0c1.105,0,2,0.895,2,2v7     C22,18.105,21.105,19,20,19L20,19z" fill="#E0E0D1"/></g><g><path d="M45,19c-1.105,0-2-0.895-2-2v-7c0-1.105,0.895-2,2-2l0,0c1.105,0,2,0.895,2,2v7     C47,18.105,46.105,19,45,19L45,19z" fill="#E0E0D1"/></g></g></g><g id="Layer_2"/></svg>