<?xml version="1.0" ?><svg enable-background="new 0 0 64 64" height="64px" version="1.1" viewBox="0 0 64 64" width="64px" xml:space="preserve" xmlns="http://www.w3.org/2000/svg" xmlns:xlink="http://www.w3.org/1999/xlink"><g id="Layer_1"><g><circle cx="32" cy="32" fill="#E0995E" r="32"/></g><g opacity="0.2"><g><polygon fill="#231F20" points="48,26 48,18 16,18 16,26 16,50 48,50    "/></g><g><path d="M48,14H16c-2.209,0-4,1.791-4,4v8v24c0,2.209,1.791,4,4,4h32c2.209,0,4-1.791,4-4V26v-8     C52,15.791,50.209,14,48,14z" fill="#231F20"/></g></g><g><g><path d="M16,50c-1.103,0-2-0.897-2-2V16c0-1.103,0.897-2,2-2h32c1.103,0,2,0.897,2,2v32c0,1.103-0.897,2-2,2H16z" fill="#77B3D4"/></g><g><path d="M48,16v8v24H16V24v-8H48 M48,12H16c-2.209,0-4,1.791-4,4v8v24c0,2.209,1.791,4,4,4h32     c2.209,0,4-1.791,4-4V24v-8C52,13.791,50.209,12,48,12L48,12z" fill="#FFFFFF"/></g></g><g><rect fill="#FFFFFF" height="4" width="32" x="16" y="44"/></g><g><g><path d="M13.99,44h34.896v-2.921c0,0-1.706-2.977-3.286-4.843c-1.176-1.388-2.932-1.78-4.464-0.076l-2.752,2.643     l-5.999-7.629c-2.234-2.841-5.89-2.841-8.124,0L13.99,44z" fill="#4F5D73"/></g></g><g><circle cx="40" cy="24" fill="#F5CF87" r="3"/></g><g><path d="M48,16v8v24H16V24v-8H48 M48,12H16c-2.209,0-4,1.791-4,4v8v24c0,2.209,1.791,4,4,4h32c2.209,0,4-1.791,4-4    V24v-8C52,13.791,50.209,12,48,12L48,12z" fill="#FFFFFF"/></g></g><g id="Layer_2"/></svg>