<?xml version="1.0" standalone="no"?>
<!DOCTYPE svg PUBLIC "-//W3C//DTD SVG 1.1//EN" "http://www.w3.org/Graphics/SVG/1.1/DTD/svg11.dtd">
<svg viewBox = "0 0 32 32" version = "1.1">
    <path id = "s3" d = "
    M24.25,10.25H20.5v-1.5h-9.375v1.5h-3.75c-1.104,0-2,0.896-2,2v10.375c0,1.104,0.896,2,2,2H24.25c1.104,0,2-0.896,2-2V12.25C26.25,11.146,25.354,10.25,24.25,10.25zM15.812,23.499c-3.342,0-6.06-2.719-6.06-6.061c0-3.342,2.718-6.062,6.06-6.062s6.062,2.72,6.062,6.062C21.874,20.78,19.153,23.499,15.812,23.499zM15.812,13.375c-2.244,0-4.062,1.819-4.062,4.062c0,2.244,1.819,4.062,4.062,4.062c2.244,0,4.062-1.818,4.062-4.062C19.875,15.194,18.057,13.375,15.812,13.375z
" fill = "#33ee33" stroke = "black" stroke-width = "0.1"/>
</svg>
