<?xml version="1.0" standalone="no"?>
<!DOCTYPE svg PUBLIC "-//W3C//DTD SVG 1.1//EN" "http://www.w3.org/Graphics/SVG/1.1/DTD/svg11.dtd">
<svg viewBox = "0 0 32 32" version = "1.1">
    <path id = "s3" d = "
    M15.5,21.125c2.682,0,4.875-2.25,4.875-5V5.875c0-2.75-2.193-5-4.875-5s-4.875,2.25-4.875,5v10.25C10.625,18.875,12.818,21.125,15.5,21.125zM21.376,11v5.125c0,3.308-2.636,6-5.876,6s-5.875-2.691-5.875-6V11H6.626v5.125c0,4.443,3.194,8.132,7.372,8.861v2.139h-3.372v3h9.749v-3h-3.376v-2.139c4.181-0.727,7.375-4.418,7.375-8.861V11H21.376z
" fill = "#33ee33" stroke = "black" stroke-width = "0.1"/>
</svg>
